<mxfile host="app.diagrams.net" modified="2022-03-27T01:07:57.305Z" agent="5.0 (Macintosh; Intel Mac OS X 10_13_6) AppleWebKit/537.36 (KHTML, like Gecko) Chrome/99.0.4844.84 Safari/537.36" etag="dSYwy3aCyXMO4_awxxMq" version="17.2.2" type="github">
  <diagram id="nhuyVc3oaAdcE0vp1AjG" name="Page-1">
    <mxGraphModel dx="1589" dy="587" grid="0" gridSize="10" guides="1" tooltips="1" connect="1" arrows="1" fold="1" page="1" pageScale="1" pageWidth="850" pageHeight="1100" math="0" shadow="0">
      <root>
        <mxCell id="0" />
        <mxCell id="1" parent="0" />
        <mxCell id="MLQ4P6cynSFWtZAP8pS3-1" value="&lt;u&gt;EEID&lt;/u&gt;" style="rounded=0;whiteSpace=wrap;html=1;" parent="1" vertex="1">
          <mxGeometry x="98" y="459" width="47" height="23" as="geometry" />
        </mxCell>
        <mxCell id="MLQ4P6cynSFWtZAP8pS3-3" value="&lt;b&gt;EMPLOYEE&lt;/b&gt;" style="text;html=1;align=center;verticalAlign=middle;resizable=0;points=[];autosize=1;strokeColor=none;fillColor=none;" parent="1" vertex="1">
          <mxGeometry x="91" y="441" width="77" height="18" as="geometry" />
        </mxCell>
        <mxCell id="MLQ4P6cynSFWtZAP8pS3-4" value="&lt;span&gt;EEFname&lt;/span&gt;" style="rounded=0;whiteSpace=wrap;html=1;" parent="1" vertex="1">
          <mxGeometry x="145" y="459" width="70" height="23" as="geometry" />
        </mxCell>
        <mxCell id="MLQ4P6cynSFWtZAP8pS3-5" value="&lt;span&gt;EELname&lt;/span&gt;" style="rounded=0;whiteSpace=wrap;html=1;" parent="1" vertex="1">
          <mxGeometry x="215" y="459" width="71" height="23" as="geometry" />
        </mxCell>
        <mxCell id="MLQ4P6cynSFWtZAP8pS3-9" value="&lt;b&gt;OWNER&lt;/b&gt;" style="text;html=1;align=center;verticalAlign=middle;resizable=0;points=[];autosize=1;strokeColor=none;fillColor=none;" parent="1" vertex="1">
          <mxGeometry x="92" y="920" width="56" height="18" as="geometry" />
        </mxCell>
        <mxCell id="MLQ4P6cynSFWtZAP8pS3-10" value="&lt;u&gt;OID&lt;/u&gt;" style="rounded=0;whiteSpace=wrap;html=1;" parent="1" vertex="1">
          <mxGeometry x="98" y="939" width="41" height="23" as="geometry" />
        </mxCell>
        <mxCell id="MLQ4P6cynSFWtZAP8pS3-12" value="OFname" style="rounded=0;whiteSpace=wrap;html=1;" parent="1" vertex="1">
          <mxGeometry x="139" y="939" width="67" height="23" as="geometry" />
        </mxCell>
        <mxCell id="MLQ4P6cynSFWtZAP8pS3-13" value="OLname" style="rounded=0;whiteSpace=wrap;html=1;" parent="1" vertex="1">
          <mxGeometry x="206" y="939" width="71" height="23" as="geometry" />
        </mxCell>
        <mxCell id="MLQ4P6cynSFWtZAP8pS3-14" value="&lt;b&gt;STORE&lt;/b&gt;" style="text;html=1;align=center;verticalAlign=middle;resizable=0;points=[];autosize=1;strokeColor=none;fillColor=none;" parent="1" vertex="1">
          <mxGeometry x="92" y="990" width="51" height="18" as="geometry" />
        </mxCell>
        <mxCell id="MLQ4P6cynSFWtZAP8pS3-15" value="&lt;u&gt;STRID&lt;/u&gt;" style="rounded=0;whiteSpace=wrap;html=1;" parent="1" vertex="1">
          <mxGeometry x="98" y="1007" width="59" height="23" as="geometry" />
        </mxCell>
        <mxCell id="MLQ4P6cynSFWtZAP8pS3-16" value="STRName" style="rounded=0;whiteSpace=wrap;html=1;" parent="1" vertex="1">
          <mxGeometry x="157" y="1007" width="80" height="23" as="geometry" />
        </mxCell>
        <mxCell id="MLQ4P6cynSFWtZAP8pS3-17" value="STRPhone" style="rounded=0;whiteSpace=wrap;html=1;" parent="1" vertex="1">
          <mxGeometry x="237" y="1007" width="85" height="23" as="geometry" />
        </mxCell>
        <mxCell id="MLQ4P6cynSFWtZAP8pS3-18" value="STRAddress" style="rounded=0;whiteSpace=wrap;html=1;" parent="1" vertex="1">
          <mxGeometry x="322" y="1007" width="93" height="23" as="geometry" />
        </mxCell>
        <mxCell id="MLQ4P6cynSFWtZAP8pS3-19" value="&lt;b&gt;MENU&lt;/b&gt;" style="text;html=1;align=center;verticalAlign=middle;resizable=0;points=[];autosize=1;strokeColor=none;fillColor=none;" parent="1" vertex="1">
          <mxGeometry x="92" y="716" width="45" height="18" as="geometry" />
        </mxCell>
        <mxCell id="MLQ4P6cynSFWtZAP8pS3-20" value="&lt;u&gt;Category&lt;/u&gt;" style="rounded=0;whiteSpace=wrap;html=1;" parent="1" vertex="1">
          <mxGeometry x="98" y="733" width="68" height="23" as="geometry" />
        </mxCell>
        <mxCell id="MLQ4P6cynSFWtZAP8pS3-21" value="&lt;b&gt;MENU ITEM&lt;/b&gt;" style="text;html=1;align=center;verticalAlign=middle;resizable=0;points=[];autosize=1;strokeColor=none;fillColor=none;" parent="1" vertex="1">
          <mxGeometry x="92" y="784" width="77" height="18" as="geometry" />
        </mxCell>
        <mxCell id="MLQ4P6cynSFWtZAP8pS3-23" value="&lt;u&gt;ITMID&lt;/u&gt;" style="rounded=0;whiteSpace=wrap;html=1;" parent="1" vertex="1">
          <mxGeometry x="98" y="801" width="59" height="23" as="geometry" />
        </mxCell>
        <mxCell id="MLQ4P6cynSFWtZAP8pS3-24" value="ITMName" style="rounded=0;whiteSpace=wrap;html=1;" parent="1" vertex="1">
          <mxGeometry x="157" y="801" width="80" height="23" as="geometry" />
        </mxCell>
        <mxCell id="MLQ4P6cynSFWtZAP8pS3-25" value="ITMDescription" style="rounded=0;whiteSpace=wrap;html=1;" parent="1" vertex="1">
          <mxGeometry x="237" y="801" width="107" height="23" as="geometry" />
        </mxCell>
        <mxCell id="MLQ4P6cynSFWtZAP8pS3-26" value="ITMPrice" style="rounded=0;whiteSpace=wrap;html=1;" parent="1" vertex="1">
          <mxGeometry x="344" y="801" width="80" height="23" as="geometry" />
        </mxCell>
        <mxCell id="MLQ4P6cynSFWtZAP8pS3-29" value="&lt;b&gt;COUPON&lt;/b&gt;" style="text;html=1;align=center;verticalAlign=middle;resizable=0;points=[];autosize=1;strokeColor=none;fillColor=none;" parent="1" vertex="1">
          <mxGeometry x="92" y="100" width="63" height="18" as="geometry" />
        </mxCell>
        <mxCell id="MLQ4P6cynSFWtZAP8pS3-30" value="&lt;u&gt;CPNID&lt;/u&gt;" style="rounded=0;whiteSpace=wrap;html=1;" parent="1" vertex="1">
          <mxGeometry x="98" y="117" width="59" height="23" as="geometry" />
        </mxCell>
        <mxCell id="MLQ4P6cynSFWtZAP8pS3-31" value="CPNDescription" style="rounded=0;whiteSpace=wrap;html=1;" parent="1" vertex="1">
          <mxGeometry x="157" y="117" width="107" height="23" as="geometry" />
        </mxCell>
        <mxCell id="MLQ4P6cynSFWtZAP8pS3-32" value="ExpirationDay" style="rounded=0;whiteSpace=wrap;html=1;" parent="1" vertex="1">
          <mxGeometry x="264" y="117" width="100" height="23" as="geometry" />
        </mxCell>
        <mxCell id="MLQ4P6cynSFWtZAP8pS3-33" value="&lt;b&gt;CUSTOMER&lt;/b&gt;" style="text;html=1;align=center;verticalAlign=middle;resizable=0;points=[];autosize=1;strokeColor=none;fillColor=none;" parent="1" vertex="1">
          <mxGeometry x="93" y="168" width="78" height="18" as="geometry" />
        </mxCell>
        <mxCell id="MLQ4P6cynSFWtZAP8pS3-34" value="&lt;u&gt;CUSTID&lt;/u&gt;" style="rounded=0;whiteSpace=wrap;html=1;" parent="1" vertex="1">
          <mxGeometry x="98" y="185" width="67" height="23" as="geometry" />
        </mxCell>
        <mxCell id="MLQ4P6cynSFWtZAP8pS3-35" value="CUSTFName" style="rounded=0;whiteSpace=wrap;html=1;" parent="1" vertex="1">
          <mxGeometry x="164.5" y="185" width="96.5" height="23" as="geometry" />
        </mxCell>
        <mxCell id="MLQ4P6cynSFWtZAP8pS3-36" value="CUSTLName" style="rounded=0;whiteSpace=wrap;html=1;" parent="1" vertex="1">
          <mxGeometry x="261" y="185" width="96.5" height="23" as="geometry" />
        </mxCell>
        <mxCell id="MLQ4P6cynSFWtZAP8pS3-37" value="CUSTAddress" style="rounded=0;whiteSpace=wrap;html=1;" parent="1" vertex="1">
          <mxGeometry x="356.5" y="185" width="105" height="23" as="geometry" />
        </mxCell>
        <mxCell id="MLQ4P6cynSFWtZAP8pS3-38" value="&lt;b&gt;ORDER&lt;/b&gt;" style="text;html=1;align=center;verticalAlign=middle;resizable=0;points=[];autosize=1;strokeColor=none;fillColor=none;" parent="1" vertex="1">
          <mxGeometry x="93" y="852" width="53" height="18" as="geometry" />
        </mxCell>
        <mxCell id="MLQ4P6cynSFWtZAP8pS3-39" value="&lt;u&gt;ORDID&lt;/u&gt;" style="rounded=0;whiteSpace=wrap;html=1;" parent="1" vertex="1">
          <mxGeometry x="98" y="869" width="59" height="23" as="geometry" />
        </mxCell>
        <mxCell id="MLQ4P6cynSFWtZAP8pS3-40" value="Date" style="rounded=0;whiteSpace=wrap;html=1;" parent="1" vertex="1">
          <mxGeometry x="157" y="869" width="53" height="23" as="geometry" />
        </mxCell>
        <mxCell id="MLQ4P6cynSFWtZAP8pS3-41" value="Time" style="rounded=0;whiteSpace=wrap;html=1;" parent="1" vertex="1">
          <mxGeometry x="210" y="869" width="53" height="23" as="geometry" />
        </mxCell>
        <mxCell id="MLQ4P6cynSFWtZAP8pS3-42" value="&lt;b&gt;DEPENDENT&lt;/b&gt;" style="text;html=1;align=center;verticalAlign=middle;resizable=0;points=[];autosize=1;strokeColor=none;fillColor=none;" parent="1" vertex="1">
          <mxGeometry x="93" y="236" width="84" height="18" as="geometry" />
        </mxCell>
        <mxCell id="MLQ4P6cynSFWtZAP8pS3-43" value="&lt;u&gt;CUSTID&lt;/u&gt;" style="rounded=0;whiteSpace=wrap;html=1;" parent="1" vertex="1">
          <mxGeometry x="98" y="253" width="67" height="23" as="geometry" />
        </mxCell>
        <mxCell id="MLQ4P6cynSFWtZAP8pS3-44" value="&lt;u&gt;DEPFname&lt;/u&gt;" style="rounded=0;whiteSpace=wrap;html=1;" parent="1" vertex="1">
          <mxGeometry x="164.5" y="253" width="92" height="23" as="geometry" />
        </mxCell>
        <mxCell id="MLQ4P6cynSFWtZAP8pS3-45" value="&lt;u&gt;DEPLname&lt;/u&gt;" style="rounded=0;whiteSpace=wrap;html=1;" parent="1" vertex="1">
          <mxGeometry x="256" y="253" width="92" height="23" as="geometry" />
        </mxCell>
        <mxCell id="MLQ4P6cynSFWtZAP8pS3-46" value="DEPAddress" style="rounded=0;whiteSpace=wrap;html=1;" parent="1" vertex="1">
          <mxGeometry x="348" y="253" width="98" height="23" as="geometry" />
        </mxCell>
        <mxCell id="MLQ4P6cynSFWtZAP8pS3-47" value="Relationship" style="rounded=0;whiteSpace=wrap;html=1;" parent="1" vertex="1">
          <mxGeometry x="446" y="253" width="98" height="23" as="geometry" />
        </mxCell>
        <mxCell id="MLQ4P6cynSFWtZAP8pS3-48" value="STRID" style="rounded=0;whiteSpace=wrap;html=1;" parent="1" vertex="1">
          <mxGeometry x="286" y="459" width="59" height="23" as="geometry" />
        </mxCell>
        <mxCell id="MLQ4P6cynSFWtZAP8pS3-49" value="OID" style="rounded=0;whiteSpace=wrap;html=1;" parent="1" vertex="1">
          <mxGeometry x="415" y="1007" width="41" height="23" as="geometry" />
        </mxCell>
        <mxCell id="MLQ4P6cynSFWtZAP8pS3-50" value="STRID" style="rounded=0;whiteSpace=wrap;html=1;" parent="1" vertex="1">
          <mxGeometry x="166" y="733" width="59" height="23" as="geometry" />
        </mxCell>
        <mxCell id="MLQ4P6cynSFWtZAP8pS3-52" value="Category" style="rounded=0;whiteSpace=wrap;html=1;" parent="1" vertex="1">
          <mxGeometry x="424" y="801" width="68" height="23" as="geometry" />
        </mxCell>
        <mxCell id="MLQ4P6cynSFWtZAP8pS3-53" value="EEID" style="rounded=0;whiteSpace=wrap;html=1;" parent="1" vertex="1">
          <mxGeometry x="364" y="117" width="47" height="23" as="geometry" />
        </mxCell>
        <mxCell id="MLQ4P6cynSFWtZAP8pS3-54" value="ORDStatus" style="rounded=0;whiteSpace=wrap;html=1;" parent="1" vertex="1">
          <mxGeometry x="263" y="869" width="79" height="23" as="geometry" />
        </mxCell>
        <mxCell id="MLQ4P6cynSFWtZAP8pS3-55" value="&lt;b&gt;DEPENDENT_OF&lt;/b&gt;" style="text;html=1;align=center;verticalAlign=middle;resizable=0;points=[];autosize=1;strokeColor=none;fillColor=none;" parent="1" vertex="1">
          <mxGeometry x="93" y="304" width="107" height="18" as="geometry" />
        </mxCell>
        <mxCell id="MLQ4P6cynSFWtZAP8pS3-56" value="&lt;u&gt;CUSTID&lt;/u&gt;" style="rounded=0;whiteSpace=wrap;html=1;" parent="1" vertex="1">
          <mxGeometry x="98" y="321" width="67" height="23" as="geometry" />
        </mxCell>
        <mxCell id="MLQ4P6cynSFWtZAP8pS3-57" value="&lt;u&gt;DEPFname&lt;/u&gt;" style="rounded=0;whiteSpace=wrap;html=1;" parent="1" vertex="1">
          <mxGeometry x="164.5" y="321" width="92" height="23" as="geometry" />
        </mxCell>
        <mxCell id="MLQ4P6cynSFWtZAP8pS3-58" value="&lt;u&gt;DEPLname&lt;/u&gt;" style="rounded=0;whiteSpace=wrap;html=1;" parent="1" vertex="1">
          <mxGeometry x="256" y="321" width="92" height="23" as="geometry" />
        </mxCell>
        <mxCell id="MLQ4P6cynSFWtZAP8pS3-59" value="&lt;b&gt;LOOKS_UP&lt;/b&gt;" style="text;html=1;align=center;verticalAlign=middle;resizable=0;points=[];autosize=1;strokeColor=none;fillColor=none;" parent="1" vertex="1">
          <mxGeometry x="93" y="648" width="76" height="18" as="geometry" />
        </mxCell>
        <mxCell id="MLQ4P6cynSFWtZAP8pS3-60" value="&lt;u&gt;CUSTID&lt;/u&gt;" style="rounded=0;whiteSpace=wrap;html=1;" parent="1" vertex="1">
          <mxGeometry x="98" y="665" width="67" height="23" as="geometry" />
        </mxCell>
        <mxCell id="MLQ4P6cynSFWtZAP8pS3-61" value="&lt;u&gt;Category&lt;/u&gt;" style="rounded=0;whiteSpace=wrap;html=1;" parent="1" vertex="1">
          <mxGeometry x="165" y="665" width="68" height="23" as="geometry" />
        </mxCell>
        <mxCell id="MLQ4P6cynSFWtZAP8pS3-62" value="&lt;b&gt;CONTAINS&lt;/b&gt;" style="text;html=1;align=center;verticalAlign=middle;resizable=0;points=[];autosize=1;strokeColor=none;fillColor=none;" parent="1" vertex="1">
          <mxGeometry x="93" y="32" width="72" height="18" as="geometry" />
        </mxCell>
        <mxCell id="MLQ4P6cynSFWtZAP8pS3-63" value="&lt;u&gt;ORDID&lt;/u&gt;" style="rounded=0;whiteSpace=wrap;html=1;" parent="1" vertex="1">
          <mxGeometry x="98" y="49" width="59" height="23" as="geometry" />
        </mxCell>
        <mxCell id="MLQ4P6cynSFWtZAP8pS3-64" value="&lt;u&gt;ITMID&lt;/u&gt;" style="rounded=0;whiteSpace=wrap;html=1;" parent="1" vertex="1">
          <mxGeometry x="157" y="49" width="59" height="23" as="geometry" />
        </mxCell>
        <mxCell id="MLQ4P6cynSFWtZAP8pS3-65" value="&lt;b&gt;EERatings&lt;/b&gt;" style="text;html=1;align=center;verticalAlign=middle;resizable=0;points=[];autosize=1;strokeColor=none;fillColor=none;" parent="1" vertex="1">
          <mxGeometry x="92" y="372" width="70" height="18" as="geometry" />
        </mxCell>
        <mxCell id="7_Z3Ms1D0da5Qso9Tqam-1" value="CUSTID" style="rounded=0;whiteSpace=wrap;html=1;" vertex="1" parent="1">
          <mxGeometry x="411" y="117" width="67" height="23" as="geometry" />
        </mxCell>
        <mxCell id="7_Z3Ms1D0da5Qso9Tqam-2" value="CUSTPassword" style="rounded=0;whiteSpace=wrap;html=1;" vertex="1" parent="1">
          <mxGeometry x="460.5" y="185" width="109" height="23" as="geometry" />
        </mxCell>
        <mxCell id="7_Z3Ms1D0da5Qso9Tqam-3" value="CUSTEmail" style="rounded=0;whiteSpace=wrap;html=1;" vertex="1" parent="1">
          <mxGeometry x="569.5" y="185" width="88.5" height="23" as="geometry" />
        </mxCell>
        <mxCell id="7_Z3Ms1D0da5Qso9Tqam-4" value="CUSTID" style="rounded=0;whiteSpace=wrap;html=1;" vertex="1" parent="1">
          <mxGeometry x="481" y="869" width="67" height="23" as="geometry" />
        </mxCell>
        <mxCell id="7_Z3Ms1D0da5Qso9Tqam-5" value="DLVROption" style="rounded=0;whiteSpace=wrap;html=1;" vertex="1" parent="1">
          <mxGeometry x="342" y="869" width="86" height="23" as="geometry" />
        </mxCell>
        <mxCell id="7_Z3Ms1D0da5Qso9Tqam-6" value="Note" style="rounded=0;whiteSpace=wrap;html=1;" vertex="1" parent="1">
          <mxGeometry x="428" y="869" width="53" height="23" as="geometry" />
        </mxCell>
        <mxCell id="7_Z3Ms1D0da5Qso9Tqam-7" value="CONTRating" style="rounded=0;whiteSpace=wrap;html=1;" vertex="1" parent="1">
          <mxGeometry x="216" y="49" width="93" height="23" as="geometry" />
        </mxCell>
        <mxCell id="7_Z3Ms1D0da5Qso9Tqam-8" value="EEID" style="rounded=0;whiteSpace=wrap;html=1;" vertex="1" parent="1">
          <mxGeometry x="548" y="869" width="47" height="23" as="geometry" />
        </mxCell>
        <mxCell id="7_Z3Ms1D0da5Qso9Tqam-9" value="DLVRRating" style="rounded=0;whiteSpace=wrap;html=1;" vertex="1" parent="1">
          <mxGeometry x="669" y="869" width="93" height="23" as="geometry" />
        </mxCell>
        <mxCell id="7_Z3Ms1D0da5Qso9Tqam-10" value="PURating" style="rounded=0;whiteSpace=wrap;html=1;" vertex="1" parent="1">
          <mxGeometry x="595" y="869" width="74" height="23" as="geometry" />
        </mxCell>
        <mxCell id="7_Z3Ms1D0da5Qso9Tqam-11" value="&lt;u&gt;EEID&lt;/u&gt;" style="rounded=0;whiteSpace=wrap;html=1;" vertex="1" parent="1">
          <mxGeometry x="98" y="390" width="47" height="23" as="geometry" />
        </mxCell>
        <mxCell id="7_Z3Ms1D0da5Qso9Tqam-12" value="&lt;u&gt;EERatingNo&lt;/u&gt;" style="rounded=0;whiteSpace=wrap;html=1;" vertex="1" parent="1">
          <mxGeometry x="145" y="390" width="87" height="23" as="geometry" />
        </mxCell>
        <mxCell id="7_Z3Ms1D0da5Qso9Tqam-13" value="&lt;u&gt;EERating&lt;/u&gt;" style="rounded=0;whiteSpace=wrap;html=1;" vertex="1" parent="1">
          <mxGeometry x="232" y="390" width="72.5" height="23" as="geometry" />
        </mxCell>
        <mxCell id="7_Z3Ms1D0da5Qso9Tqam-14" value="&lt;b&gt;ITMRatings&lt;/b&gt;" style="text;html=1;align=center;verticalAlign=middle;resizable=0;points=[];autosize=1;strokeColor=none;fillColor=none;" vertex="1" parent="1">
          <mxGeometry x="91" y="579" width="75" height="18" as="geometry" />
        </mxCell>
        <mxCell id="7_Z3Ms1D0da5Qso9Tqam-15" value="&lt;u&gt;ITMID&lt;/u&gt;" style="rounded=0;whiteSpace=wrap;html=1;" vertex="1" parent="1">
          <mxGeometry x="97" y="597" width="47" height="23" as="geometry" />
        </mxCell>
        <mxCell id="7_Z3Ms1D0da5Qso9Tqam-16" value="&lt;u&gt;ITMRatingNo&lt;/u&gt;" style="rounded=0;whiteSpace=wrap;html=1;" vertex="1" parent="1">
          <mxGeometry x="144" y="597" width="87" height="23" as="geometry" />
        </mxCell>
        <mxCell id="7_Z3Ms1D0da5Qso9Tqam-17" value="&lt;u&gt;ITMRating&lt;/u&gt;" style="rounded=0;whiteSpace=wrap;html=1;" vertex="1" parent="1">
          <mxGeometry x="231" y="597" width="72.5" height="23" as="geometry" />
        </mxCell>
        <mxCell id="7_Z3Ms1D0da5Qso9Tqam-18" value="EEID" style="rounded=0;whiteSpace=wrap;html=1;" vertex="1" parent="1">
          <mxGeometry x="455.5" y="1007" width="47" height="23" as="geometry" />
        </mxCell>
        <mxCell id="7_Z3Ms1D0da5Qso9Tqam-19" value="&lt;u&gt;EEID&lt;/u&gt;" style="rounded=0;whiteSpace=wrap;html=1;" vertex="1" parent="1">
          <mxGeometry x="98" y="528" width="47" height="23" as="geometry" />
        </mxCell>
        <mxCell id="7_Z3Ms1D0da5Qso9Tqam-20" value="&lt;b&gt;RECEPTIONIST&lt;/b&gt;" style="text;html=1;align=center;verticalAlign=middle;resizable=0;points=[];autosize=1;strokeColor=none;fillColor=none;" vertex="1" parent="1">
          <mxGeometry x="91" y="510" width="99" height="18" as="geometry" />
        </mxCell>
        <mxCell id="7_Z3Ms1D0da5Qso9Tqam-21" value="&lt;span&gt;RECPPassword&lt;/span&gt;" style="rounded=0;whiteSpace=wrap;html=1;" vertex="1" parent="1">
          <mxGeometry x="145" y="528" width="103" height="23" as="geometry" />
        </mxCell>
        <mxCell id="7_Z3Ms1D0da5Qso9Tqam-22" value="&lt;b&gt;DELIVERY DRIVER&lt;/b&gt;" style="text;html=1;align=center;verticalAlign=middle;resizable=0;points=[];autosize=1;strokeColor=none;fillColor=none;" vertex="1" parent="1">
          <mxGeometry x="282" y="510" width="118" height="18" as="geometry" />
        </mxCell>
        <mxCell id="7_Z3Ms1D0da5Qso9Tqam-23" value="&lt;u&gt;EEID&lt;/u&gt;" style="rounded=0;whiteSpace=wrap;html=1;" vertex="1" parent="1">
          <mxGeometry x="288" y="527" width="47" height="23" as="geometry" />
        </mxCell>
        <mxCell id="7_Z3Ms1D0da5Qso9Tqam-24" value="&lt;span&gt;DRVPhone&lt;/span&gt;" style="rounded=0;whiteSpace=wrap;html=1;" vertex="1" parent="1">
          <mxGeometry x="335" y="527" width="81" height="23" as="geometry" />
        </mxCell>
        <mxCell id="7_Z3Ms1D0da5Qso9Tqam-25" value="&lt;span&gt;DRVStatus&lt;/span&gt;" style="rounded=0;whiteSpace=wrap;html=1;" vertex="1" parent="1">
          <mxGeometry x="415.5" y="527" width="81" height="23" as="geometry" />
        </mxCell>
        <mxCell id="7_Z3Ms1D0da5Qso9Tqam-26" value="&lt;u&gt;EEID&lt;/u&gt;" style="rounded=0;whiteSpace=wrap;html=1;" vertex="1" parent="1">
          <mxGeometry x="542.25" y="527" width="47" height="23" as="geometry" />
        </mxCell>
        <mxCell id="7_Z3Ms1D0da5Qso9Tqam-27" value="&lt;b&gt;MANAGER&lt;/b&gt;" style="text;html=1;align=center;verticalAlign=middle;resizable=0;points=[];autosize=1;strokeColor=none;fillColor=none;" vertex="1" parent="1">
          <mxGeometry x="536.25" y="509" width="72" height="18" as="geometry" />
        </mxCell>
        <mxCell id="7_Z3Ms1D0da5Qso9Tqam-28" value="&lt;span&gt;MGRPassword&lt;/span&gt;" style="rounded=0;whiteSpace=wrap;html=1;" vertex="1" parent="1">
          <mxGeometry x="589.25" y="527" width="103" height="23" as="geometry" />
        </mxCell>
        <mxCell id="7_Z3Ms1D0da5Qso9Tqam-29" value="" style="endArrow=classic;html=1;rounded=0;exitX=0;exitY=0.5;exitDx=0;exitDy=0;entryX=0;entryY=0.5;entryDx=0;entryDy=0;" edge="1" parent="1" source="MLQ4P6cynSFWtZAP8pS3-63" target="MLQ4P6cynSFWtZAP8pS3-39">
          <mxGeometry width="50" height="50" relative="1" as="geometry">
            <mxPoint x="764" y="304" as="sourcePoint" />
            <mxPoint x="68" y="886" as="targetPoint" />
            <Array as="points">
              <mxPoint x="19" y="61" />
              <mxPoint x="15" y="881" />
            </Array>
          </mxGeometry>
        </mxCell>
        <mxCell id="7_Z3Ms1D0da5Qso9Tqam-30" value="" style="endArrow=classic;html=1;rounded=0;" edge="1" parent="1">
          <mxGeometry width="50" height="50" relative="1" as="geometry">
            <mxPoint x="187" y="72" as="sourcePoint" />
            <mxPoint x="128" y="824" as="targetPoint" />
            <Array as="points">
              <mxPoint x="187" y="82" />
              <mxPoint x="35" y="82" />
              <mxPoint x="35" y="838" />
              <mxPoint x="128" y="838" />
            </Array>
          </mxGeometry>
        </mxCell>
        <mxCell id="7_Z3Ms1D0da5Qso9Tqam-32" value="" style="endArrow=classic;html=1;rounded=0;exitX=0.25;exitY=1;exitDx=0;exitDy=0;" edge="1" parent="1" source="7_Z3Ms1D0da5Qso9Tqam-1">
          <mxGeometry width="50" height="50" relative="1" as="geometry">
            <mxPoint x="371" y="158" as="sourcePoint" />
            <mxPoint x="98" y="191" as="targetPoint" />
            <Array as="points">
              <mxPoint x="428" y="157" />
              <mxPoint x="69" y="157" />
              <mxPoint x="69" y="191" />
            </Array>
          </mxGeometry>
        </mxCell>
        <mxCell id="7_Z3Ms1D0da5Qso9Tqam-34" value="" style="endArrow=classic;html=1;rounded=0;exitX=0.5;exitY=0;exitDx=0;exitDy=0;entryX=0.25;entryY=1;entryDx=0;entryDy=0;" edge="1" parent="1" source="MLQ4P6cynSFWtZAP8pS3-53" target="7_Z3Ms1D0da5Qso9Tqam-26">
          <mxGeometry width="50" height="50" relative="1" as="geometry">
            <mxPoint x="508" y="400" as="sourcePoint" />
            <mxPoint x="550" y="551" as="targetPoint" />
            <Array as="points">
              <mxPoint x="388" y="89" />
              <mxPoint x="706" y="89" />
              <mxPoint x="706" y="566" />
              <mxPoint x="554" y="567" />
            </Array>
          </mxGeometry>
        </mxCell>
        <mxCell id="7_Z3Ms1D0da5Qso9Tqam-35" value="" style="endArrow=classic;html=1;rounded=0;" edge="1" parent="1">
          <mxGeometry width="50" height="50" relative="1" as="geometry">
            <mxPoint x="98" y="265" as="sourcePoint" />
            <mxPoint x="133" y="208" as="targetPoint" />
            <Array as="points">
              <mxPoint x="79" y="265" />
              <mxPoint x="79" y="225" />
              <mxPoint x="133" y="225" />
            </Array>
          </mxGeometry>
        </mxCell>
        <mxCell id="7_Z3Ms1D0da5Qso9Tqam-36" value="" style="endArrow=classic;html=1;rounded=0;entryX=0.5;entryY=1;entryDx=0;entryDy=0;exitX=0.5;exitY=0;exitDx=0;exitDy=0;" edge="1" parent="1" source="MLQ4P6cynSFWtZAP8pS3-57" target="MLQ4P6cynSFWtZAP8pS3-44">
          <mxGeometry width="50" height="50" relative="1" as="geometry">
            <mxPoint x="306" y="273" as="sourcePoint" />
            <mxPoint x="356" y="223" as="targetPoint" />
          </mxGeometry>
        </mxCell>
        <mxCell id="7_Z3Ms1D0da5Qso9Tqam-37" value="" style="endArrow=classic;html=1;rounded=0;exitX=0.5;exitY=0;exitDx=0;exitDy=0;entryX=0.5;entryY=1;entryDx=0;entryDy=0;" edge="1" parent="1" source="MLQ4P6cynSFWtZAP8pS3-58" target="MLQ4P6cynSFWtZAP8pS3-45">
          <mxGeometry width="50" height="50" relative="1" as="geometry">
            <mxPoint x="306" y="273" as="sourcePoint" />
            <mxPoint x="356" y="223" as="targetPoint" />
          </mxGeometry>
        </mxCell>
        <mxCell id="7_Z3Ms1D0da5Qso9Tqam-38" value="" style="endArrow=classic;html=1;rounded=0;" edge="1" parent="1">
          <mxGeometry width="50" height="50" relative="1" as="geometry">
            <mxPoint x="98" y="333" as="sourcePoint" />
            <mxPoint x="113" y="208" as="targetPoint" />
            <Array as="points">
              <mxPoint x="64" y="333" />
              <mxPoint x="64" y="221" />
              <mxPoint x="113" y="221" />
            </Array>
          </mxGeometry>
        </mxCell>
        <mxCell id="7_Z3Ms1D0da5Qso9Tqam-39" value="" style="endArrow=classic;html=1;rounded=0;entryX=0;entryY=0.25;entryDx=0;entryDy=0;" edge="1" parent="1" target="MLQ4P6cynSFWtZAP8pS3-1">
          <mxGeometry width="50" height="50" relative="1" as="geometry">
            <mxPoint x="98" y="403" as="sourcePoint" />
            <mxPoint x="98" y="471" as="targetPoint" />
            <Array as="points">
              <mxPoint x="73" y="403" />
              <mxPoint x="73" y="465" />
            </Array>
          </mxGeometry>
        </mxCell>
        <mxCell id="7_Z3Ms1D0da5Qso9Tqam-40" value="" style="endArrow=classic;html=1;rounded=0;entryX=0.25;entryY=1;entryDx=0;entryDy=0;" edge="1" parent="1" target="MLQ4P6cynSFWtZAP8pS3-1">
          <mxGeometry width="50" height="50" relative="1" as="geometry">
            <mxPoint x="98" y="540" as="sourcePoint" />
            <mxPoint x="369" y="432" as="targetPoint" />
            <Array as="points">
              <mxPoint x="81" y="540" />
              <mxPoint x="81" y="495" />
              <mxPoint x="110" y="495" />
            </Array>
          </mxGeometry>
        </mxCell>
        <mxCell id="7_Z3Ms1D0da5Qso9Tqam-41" value="" style="endArrow=classic;html=1;rounded=0;entryX=0.5;entryY=1;entryDx=0;entryDy=0;" edge="1" parent="1" target="MLQ4P6cynSFWtZAP8pS3-1">
          <mxGeometry width="50" height="50" relative="1" as="geometry">
            <mxPoint x="288" y="539" as="sourcePoint" />
            <mxPoint x="180" y="511" as="targetPoint" />
            <Array as="points">
              <mxPoint x="277" y="539" />
              <mxPoint x="277" y="506" />
              <mxPoint x="122" y="506" />
            </Array>
          </mxGeometry>
        </mxCell>
        <mxCell id="7_Z3Ms1D0da5Qso9Tqam-42" value="" style="endArrow=classic;html=1;rounded=0;entryX=0.75;entryY=1;entryDx=0;entryDy=0;" edge="1" parent="1" target="MLQ4P6cynSFWtZAP8pS3-1">
          <mxGeometry width="50" height="50" relative="1" as="geometry">
            <mxPoint x="542" y="539" as="sourcePoint" />
            <mxPoint x="214" y="464" as="targetPoint" />
            <Array as="points">
              <mxPoint x="535" y="539" />
              <mxPoint x="535" y="496" />
              <mxPoint x="133" y="497" />
            </Array>
          </mxGeometry>
        </mxCell>
        <mxCell id="7_Z3Ms1D0da5Qso9Tqam-43" value="" style="endArrow=classic;html=1;rounded=0;" edge="1" parent="1">
          <mxGeometry width="50" height="50" relative="1" as="geometry">
            <mxPoint x="97" y="609" as="sourcePoint" />
            <mxPoint x="98" y="813" as="targetPoint" />
            <Array as="points">
              <mxPoint x="67" y="609" />
              <mxPoint x="67" y="813" />
            </Array>
          </mxGeometry>
        </mxCell>
        <mxCell id="7_Z3Ms1D0da5Qso9Tqam-44" value="" style="endArrow=classic;html=1;rounded=0;exitX=0.5;exitY=1;exitDx=0;exitDy=0;entryX=0.75;entryY=0;entryDx=0;entryDy=0;" edge="1" parent="1" source="MLQ4P6cynSFWtZAP8pS3-61" target="MLQ4P6cynSFWtZAP8pS3-20">
          <mxGeometry width="50" height="50" relative="1" as="geometry">
            <mxPoint x="595" y="786" as="sourcePoint" />
            <mxPoint x="645" y="736" as="targetPoint" />
            <Array as="points">
              <mxPoint x="199" y="710" />
              <mxPoint x="149" y="710" />
            </Array>
          </mxGeometry>
        </mxCell>
        <mxCell id="7_Z3Ms1D0da5Qso9Tqam-45" value="" style="endArrow=classic;html=1;rounded=0;exitX=0.5;exitY=1;exitDx=0;exitDy=0;entryX=0;entryY=0.75;entryDx=0;entryDy=0;" edge="1" parent="1" source="MLQ4P6cynSFWtZAP8pS3-60" target="MLQ4P6cynSFWtZAP8pS3-34">
          <mxGeometry width="50" height="50" relative="1" as="geometry">
            <mxPoint x="449" y="680" as="sourcePoint" />
            <mxPoint x="48" y="196" as="targetPoint" />
            <Array as="points">
              <mxPoint x="131" y="705" />
              <mxPoint x="48" y="705" />
              <mxPoint x="49" y="202" />
            </Array>
          </mxGeometry>
        </mxCell>
        <mxCell id="7_Z3Ms1D0da5Qso9Tqam-46" value="" style="endArrow=classic;html=1;rounded=0;exitX=0.5;exitY=0;exitDx=0;exitDy=0;entryX=0.5;entryY=1;entryDx=0;entryDy=0;" edge="1" parent="1" source="MLQ4P6cynSFWtZAP8pS3-52" target="MLQ4P6cynSFWtZAP8pS3-20">
          <mxGeometry width="50" height="50" relative="1" as="geometry">
            <mxPoint x="454" y="889" as="sourcePoint" />
            <mxPoint x="504" y="839" as="targetPoint" />
            <Array as="points">
              <mxPoint x="458" y="774" />
              <mxPoint x="132" y="774" />
            </Array>
          </mxGeometry>
        </mxCell>
        <mxCell id="7_Z3Ms1D0da5Qso9Tqam-47" value="" style="endArrow=classic;html=1;rounded=0;exitX=0.5;exitY=0;exitDx=0;exitDy=0;entryX=0.75;entryY=1;entryDx=0;entryDy=0;" edge="1" parent="1" source="7_Z3Ms1D0da5Qso9Tqam-4" target="MLQ4P6cynSFWtZAP8pS3-34">
          <mxGeometry width="50" height="50" relative="1" as="geometry">
            <mxPoint x="529" y="572" as="sourcePoint" />
            <mxPoint x="579" y="522" as="targetPoint" />
            <Array as="points">
              <mxPoint x="515" y="836" />
              <mxPoint x="780" y="836" />
              <mxPoint x="785" y="223" />
              <mxPoint x="148" y="225" />
            </Array>
          </mxGeometry>
        </mxCell>
        <mxCell id="7_Z3Ms1D0da5Qso9Tqam-48" value="" style="endArrow=classic;html=1;rounded=0;entryX=0;entryY=0.75;entryDx=0;entryDy=0;" edge="1" parent="1" target="MLQ4P6cynSFWtZAP8pS3-1">
          <mxGeometry width="50" height="50" relative="1" as="geometry">
            <mxPoint x="572" y="868" as="sourcePoint" />
            <mxPoint x="428" y="729" as="targetPoint" />
            <Array as="points">
              <mxPoint x="572" y="574" />
              <mxPoint x="64" y="574" />
              <mxPoint x="64" y="476" />
            </Array>
          </mxGeometry>
        </mxCell>
        <mxCell id="7_Z3Ms1D0da5Qso9Tqam-49" value="" style="endArrow=classic;html=1;rounded=0;" edge="1" parent="1">
          <mxGeometry width="50" height="50" relative="1" as="geometry">
            <mxPoint x="436" y="1007" as="sourcePoint" />
            <mxPoint x="119" y="961" as="targetPoint" />
            <Array as="points">
              <mxPoint x="436" y="980" />
              <mxPoint x="119" y="980" />
            </Array>
          </mxGeometry>
        </mxCell>
        <mxCell id="7_Z3Ms1D0da5Qso9Tqam-53" value="" style="endArrow=classic;html=1;rounded=0;exitX=0.5;exitY=0;exitDx=0;exitDy=0;entryX=0.75;entryY=1;entryDx=0;entryDy=0;" edge="1" parent="1" source="7_Z3Ms1D0da5Qso9Tqam-18" target="7_Z3Ms1D0da5Qso9Tqam-26">
          <mxGeometry width="50" height="50" relative="1" as="geometry">
            <mxPoint x="615" y="906" as="sourcePoint" />
            <mxPoint x="808" y="977" as="targetPoint" />
            <Array as="points">
              <mxPoint x="479" y="962" />
              <mxPoint x="810" y="962" />
              <mxPoint x="810" y="741" />
              <mxPoint x="580" y="741" />
            </Array>
          </mxGeometry>
        </mxCell>
        <mxCell id="7_Z3Ms1D0da5Qso9Tqam-54" value="" style="endArrow=classic;html=1;rounded=0;exitX=1;exitY=0.5;exitDx=0;exitDy=0;entryX=0.5;entryY=1;entryDx=0;entryDy=0;" edge="1" parent="1" source="MLQ4P6cynSFWtZAP8pS3-48" target="MLQ4P6cynSFWtZAP8pS3-15">
          <mxGeometry width="50" height="50" relative="1" as="geometry">
            <mxPoint x="511" y="520" as="sourcePoint" />
            <mxPoint x="793" y="1070" as="targetPoint" />
            <Array as="points">
              <mxPoint x="824" y="471" />
              <mxPoint x="824" y="1058" />
              <mxPoint x="128" y="1058" />
            </Array>
          </mxGeometry>
        </mxCell>
        <mxCell id="7_Z3Ms1D0da5Qso9Tqam-55" value="" style="endArrow=classic;html=1;rounded=0;entryX=0;entryY=0.5;entryDx=0;entryDy=0;exitX=0.5;exitY=1;exitDx=0;exitDy=0;" edge="1" parent="1" source="MLQ4P6cynSFWtZAP8pS3-50" target="MLQ4P6cynSFWtZAP8pS3-15">
          <mxGeometry width="50" height="50" relative="1" as="geometry">
            <mxPoint x="511" y="897" as="sourcePoint" />
            <mxPoint x="561" y="847" as="targetPoint" />
            <Array as="points">
              <mxPoint x="196" y="781" />
              <mxPoint x="47" y="781" />
              <mxPoint x="47" y="1019" />
            </Array>
          </mxGeometry>
        </mxCell>
      </root>
    </mxGraphModel>
  </diagram>
</mxfile>
